<?xml version="1.0" standalone="no"?>
<!DOCTYPE svg PUBLIC "-//W3C//DTD SVG 20010904//EN"
 "http://www.w3.org/TR/2001/REC-SVG-20010904/DTD/svg10.dtd">
<svg version="1.0" xmlns="http://www.w3.org/2000/svg"
 width="300.000000pt" height="127.000000pt" viewBox="0 0 300.000000 127.000000"
 preserveAspectRatio="xMidYMid meet">
<metadata>
Created by potrace 1.10, written by Peter Selinger 2001-2011
</metadata>
<g transform="translate(0.000000,127.000000) scale(0.100000,-0.100000)"
fill="#000000" stroke="none">
<path d="M1196 1148 c-13 -19 -14 -25 -2 -43 26 -39 76 -26 76 19 0 46 -48 62
-74 24z"/>
<path d="M34 1131 c-10 -10 -2 -20 19 -23 22 -3 22 -6 27 -181 3 -98 2 -187
-2 -198 -4 -10 -17 -19 -28 -19 -11 0 -20 -4 -20 -10 0 -6 62 -10 165 -10
l165 0 0 66 c0 48 -3 65 -12 62 -7 -3 -16 -21 -19 -42 -9 -54 -21 -61 -102
-61 l-72 0 -3 93 -3 93 38 -3 c35 -3 39 -6 47 -40 17 -70 31 -43 29 54 -2 93
-15 126 -27 67 -8 -44 -23 -59 -58 -59 l-29 0 3 93 3 92 66 3 c73 3 87 -5 98
-60 12 -58 31 -45 31 21 l0 60 -156 3 c-86 2 -158 1 -160 -1z"/>
<path d="M400 1003 c0 -7 9 -13 20 -13 27 0 31 -25 28 -160 -3 -111 -4 -115
-25 -118 -13 -2 -23 -8 -23 -13 0 -5 41 -9 90 -9 93 0 114 9 58 25 l-33 10 -3
75 c-4 97 3 133 34 170 30 35 61 42 44 11 -15 -29 -2 -53 28 -49 37 4 49 30
29 62 -26 38 -77 36 -111 -5 l-26 -31 0 29 c0 29 -1 29 -55 29 -37 -1 -55 -5
-55 -13z"/>
<path d="M660 1006 c0 -5 7 -14 15 -20 9 -6 40 -76 69 -154 29 -79 56 -144 60
-145 8 -2 86 196 86 219 0 37 19 3 60 -106 24 -66 48 -119 52 -118 5 2 31 68
59 148 27 80 56 150 64 156 8 6 15 15 15 20 0 14 -103 10 -108 -4 -2 -7 5 -12
17 -12 11 0 23 -4 26 -10 5 -8 -39 -170 -53 -194 -2 -5 -25 46 -50 113 -24 67
-49 120 -55 118 -6 -2 -30 -57 -53 -122 l-41 -118 -32 94 c-37 111 -37 117
-11 121 12 2 19 7 18 12 -4 12 -138 14 -138 2z"/>
<path d="M1154 1011 c-10 -10 -2 -20 19 -23 22 -3 22 -6 22 -138 0 -132 0
-135 -22 -138 -13 -2 -23 -8 -23 -13 0 -5 36 -9 80 -9 81 0 98 7 58 25 -22 10
-23 14 -23 156 l0 147 -53 -2 c-29 0 -55 -3 -58 -5z"/>
<path d="M1334 1007 c-3 -4 6 -11 21 -17 l26 -10 -3 -132 c-3 -129 -4 -133
-25 -136 -13 -2 -23 -8 -23 -13 0 -5 36 -9 80 -9 75 0 105 11 60 23 -18 5 -20
14 -20 115 0 96 3 113 21 136 17 22 28 27 58 24 l36 -3 5 -123 c5 -125 1 -152
-25 -152 -8 0 -15 -4 -15 -10 0 -6 33 -10 80 -10 44 0 80 4 80 9 0 5 -10 11
-22 13 -22 3 -23 7 -28 136 -5 126 -6 135 -29 153 -35 29 -105 26 -137 -6 -31
-31 -36 -31 -28 -1 6 24 4 24 -51 23 -31 -1 -59 -5 -61 -10z"/>
<path d="M1830 600 c0 -5 9 -10 19 -10 10 0 22 -7 25 -16 3 -9 6 -105 6 -215
l0 -199 -25 -12 c-38 -17 -30 -27 14 -16 25 6 51 6 75 0 41 -12 49 -1 11 16
l-25 12 0 225 0 225 -50 0 c-27 0 -50 -4 -50 -10z"/>
<path d="M996 561 c5 -5 18 -11 29 -13 19 -3 20 -12 23 -196 l2 -193 -32 -14
c-38 -16 -38 -16 42 -17 69 0 86 7 41 17 -17 4 -31 12 -31 18 0 7 -2 90 -4
186 -3 95 -1 170 3 165 4 -5 38 -90 76 -189 37 -99 71 -184 75 -188 7 -8 67
139 126 306 14 42 28 77 30 77 2 0 4 -81 4 -180 l0 -180 -25 -12 c-37 -17 -30
-27 13 -17 34 7 55 6 105 -8 29 -8 19 12 -13 24 l-30 11 0 180 c0 99 3 187 6
196 3 9 14 16 24 16 11 0 22 5 25 10 5 7 -12 10 -50 8 l-56 -3 -35 -90 c-20
-50 -44 -112 -54 -140 -10 -27 -25 -68 -33 -89 l-14 -40 -22 60 c-12 32 -43
113 -68 180 l-47 121 -60 1 c-35 1 -56 -2 -50 -7z"/>
<path d="M1590 438 c-19 -13 -36 -33 -38 -44 -4 -25 20 -47 42 -38 18 7 22 49
6 59 -20 13 2 25 45 25 51 0 65 -16 65 -75 0 -31 -4 -37 -37 -51 -99 -42 -122
-57 -132 -85 -12 -36 0 -73 28 -88 35 -19 87 -13 112 13 l23 24 11 -21 c8 -17
20 -22 49 -22 22 0 41 5 43 11 2 7 -5 10 -21 7 l-24 -5 -4 131 c-3 118 -5 133
-24 152 -34 33 -101 36 -144 7z m94 -266 c-33 -29 -74 -26 -90 6 -20 41 -3 74
57 107 l54 31 3 -61 c3 -55 1 -62 -24 -83z"/>
<path d="M2069 437 c-38 -25 -48 -57 -25 -76 34 -28 71 16 42 48 -16 17 -16
19 -1 25 29 11 82 6 94 -8 7 -8 11 -34 9 -58 -3 -42 -4 -44 -56 -64 -84 -33
-112 -58 -112 -99 0 -22 8 -43 20 -55 27 -27 89 -27 123 0 l26 21 11 -21 c11
-20 51 -27 84 -14 26 10 18 23 -11 21 l-28 -2 -2 115 c-4 148 -6 158 -48 176
-49 20 -87 17 -126 -9z m96 -264 c-14 -13 -33 -23 -41 -23 -61 0 -75 71 -23
114 17 14 36 26 44 26 7 0 19 7 26 17 12 14 14 8 17 -48 3 -58 1 -66 -23 -86z"/>
<path d="M2700 438 c-46 -31 -73 -87 -73 -153 0 -77 28 -125 87 -150 43 -17
50 -18 88 -5 23 8 50 27 61 42 29 39 13 47 -18 9 -63 -74 -165 -13 -165 98 l0
41 100 0 c55 0 100 3 100 8 0 4 -5 23 -10 43 -22 78 -105 111 -170 67z m95
-13 c17 -16 25 -35 25 -57 l0 -33 -70 -1 c-39 0 -70 4 -70 8 0 23 30 77 51 92
31 21 35 20 64 -9z"/>
<path d="M2306 434 c12 -8 45 -73 80 -159 32 -80 61 -145 64 -145 5 0 51 110
99 241 13 35 30 60 44 67 18 9 11 11 -41 11 -40 1 -61 -3 -57 -9 3 -5 14 -10
25 -10 10 0 20 -6 22 -12 5 -14 -63 -208 -73 -208 -9 0 -88 203 -83 212 3 4
14 8 24 8 10 0 22 5 25 10 4 6 -22 10 -72 9 -71 0 -76 -1 -57 -15z"/>
</g>
</svg>
